<?xml version="1.0" encoding="UTF-8" standalone="no"?>
<!-- Created with Inkscape (http://www.inkscape.org/) -->

<svg
   version="1.1"
   id="svg1"
   width="474"
   height="474"
   viewBox="0 0 474 474"
   sodipodi:docname="paperless.svg"
   inkscape:version="1.4.2 (ebf0e940d0, 2025-05-08)"
   xmlns:inkscape="http://www.inkscape.org/namespaces/inkscape"
   xmlns:sodipodi="http://sodipodi.sourceforge.net/DTD/sodipodi-0.dtd"
   xmlns="http://www.w3.org/2000/svg"
   xmlns:svg="http://www.w3.org/2000/svg">
  <defs
     id="defs1" />
  <sodipodi:namedview
     id="namedview1"
     pagecolor="#ffffff"
     bordercolor="#000000"
     borderopacity="0.25"
     inkscape:showpageshadow="2"
     inkscape:pageopacity="0.0"
     inkscape:pagecheckerboard="0"
     inkscape:deskcolor="#d1d1d1"
     inkscape:zoom="0.61814346"
     inkscape:cx="10.515358"
     inkscape:cy="381.7884"
     inkscape:window-width="2560"
     inkscape:window-height="1380"
     inkscape:window-x="0"
     inkscape:window-y="0"
     inkscape:window-maximized="1"
     inkscape:current-layer="g1" />
  <g
     inkscape:groupmode="layer"
     inkscape:label="Image"
     id="g1">
    <g
       id="g2"
       transform="translate(1462.4437,266.71249)">
      <rect
         style="fill:#ffffff;fill-opacity:1"
         id="rect1"
         width="474"
         height="474"
         x="-1462.4437"
         y="-266.71249"
         rx="60"
         ry="60" />
      <path
         style="fill:#1b5523;fill-opacity:1;stroke-width:0.846621"
         d="m -1319.0046,168.15668 c 0,-0.46563 -0.7441,-0.84661 -1.6536,-0.84661 -2.2982,0 -5.9663,-1.77539 -5.9655,-2.88742 5e-4,-0.5073 1.1515,-3.35477 2.5579,-6.3277 l 2.5571,-5.40532 -2.6062,-11.95039 c -1.4335,-6.57272 -2.823,-12.83463 -3.0881,-13.91537 -0.3183,-1.29857 -3.2448,-3.79231 -8.6293,-7.35318 -39.7452,-26.284159 -60.2008,-67.186614 -56.8941,-113.7634657 0.9819,-13.829655 3.3496,-26.0517333 7.4001,-38.1995643 2.9901,-8.967053 10.2526,-25.398618 11.226,-25.398618 0.2891,0 0.9788,2.387856 1.5324,5.306352 2.7602,14.550856 10.7969,27.917887 34.4769,57.3435613 27.3917,34.0380257 35.1721,49.2707117 35.1721,68.8603357 0,14.981289 -4.8714,27.741199 -16.3058,42.710979 l -3.4172,4.47384 2.781,10.76532 c 1.5296,5.92094 3.0543,11.07164 3.3883,11.44599 0.3339,0.37436 2.167,-1.91152 4.0736,-5.07972 1.9065,-3.1682 7.4838,-11.85605 12.394,-19.30631 4.9101,-7.45025 10.2932,-15.92165 11.9625,-18.82531 l 3.0349,-5.279396 -2.5163,-6.573293 c -8.3841,-21.901635 -11.9573,-38.422706 -12.5908,-58.217143 -0.3882,-12.131226 -0.187,-15.992595 1.2809,-24.5764117 4.724,-27.6235543 17.6827,-50.3490163 42.2476,-74.0890393 17.8432,-17.24398 33.0013,-28.62241 71.3475,-53.556967 41.3677,-26.89926 55.1479,-36.53681 69.8462,-48.84873 20.9994,-17.58996 35.1331,-34.17491 44.2917,-51.97314 3.7975,-7.3799 3.5108,-7.65939 5.5497,5.40783 2.7752,17.78562 3.4351,27.998 3.392,52.49047 -0.047,26.95084 -1.3282,40.72865 -5.9028,63.49653 -9.4717,47.141645 -29.9191,89.720158 -59.156,123.183264 -9.9605,11.400474 -12.4055,13.883256 -21.6161,21.951102 -18.7595,16.431934 -34.5983,26.999526 -57.1469,38.128119 -19.2527,9.501909 -31.6053,14.22358 -54.1329,20.691685 l -16.8815,4.84703 -6.4005,10.67302 c -3.5203,5.87016 -11.7342,19.83172 -18.2532,31.02571 -11.5943,19.90908 -11.9126,20.35339 -14.6042,20.38562 -1.5133,0.0181 -2.7514,-0.34801 -2.7514,-0.81366 z m -0.988,-67.09466 c 3.7732,-6.647651 5.221,-12.597322 5.221,-21.456353 0,-16.987181 -5.7067,-33.290494 -18.1609,-51.88303 -3.9091,-5.835951 -11.4436,-14.806919 -11.9829,-14.26764 -0.1706,0.17069 2.4934,5.808242 5.92,12.527896 7.3486,14.410226 11.6666,25.560264 15.016,38.773696 3.7182,14.66872 4.0151,25.343431 1.0687,38.421981 -0.7845,3.48209 0.1077,2.83512 2.9181,-2.11655 z"
         id="path1" />
    </g>
  </g>
</svg>
